<svg width="26" height="27" viewBox="0 0 26 27" fill="none" xmlns="http://www.w3.org/2000/svg">
<path fill-rule="evenodd" clip-rule="evenodd" d="M10.5722 12.7212C10.1465 12.7212 9.80986 13.065 9.80986 13.4998C9.80986 13.9244 10.1465 14.2783 10.5722 14.2783H16.513V19.1114C16.513 21.5887 14.5426 23.6109 12.1069 23.6109H7.28505C4.85925 23.6109 2.88892 21.5988 2.88892 19.1216V7.88812C2.88892 5.40078 4.86916 3.38867 7.29495 3.38867H12.1267C14.5426 3.38867 16.513 5.40078 16.513 7.87801V12.7212H10.5722ZM20.0457 10.0015L22.8873 12.9439C23.0333 13.0955 23.1111 13.2876 23.1111 13.5C23.1111 13.7022 23.0333 13.9044 22.8873 14.046L20.0457 16.9883C19.8997 17.14 19.7051 17.2209 19.5202 17.2209C19.3256 17.2209 19.131 17.14 18.985 16.9883C18.693 16.685 18.693 16.1895 18.985 15.8862L20.542 14.2785H16.5132V12.7214H20.542L18.985 11.1137C18.693 10.8104 18.693 10.315 18.985 10.0116C19.2769 9.69819 19.7538 9.69819 20.0457 10.0015Z" fill="#999999"/>
</svg>
