<svg width="110" height="48" viewBox="0 0 110 48" fill="none" xmlns="http://www.w3.org/2000/svg">
<path d="M9.8596 0C13.5782 0 16.4617 1.08723 18.5101 3.26168C20.5585 5.43613 21.5827 8.36692 21.5827 12.054C21.5827 15.9933 20.5743 19.1446 18.5574 21.5082C16.572 23.8717 13.7358 25.0535 10.0487 25.0535C8.34694 25.0535 6.75549 24.7383 5.27434 24.1081V33.3259H0.5V2.12718C3.39927 0.709062 6.51914 0 9.8596 0ZM5.27434 5.0107V20.0428C6.72398 20.7361 8.09483 21.0827 9.3869 21.0827C14.2085 21.0827 16.6193 18.1204 16.6193 12.1958C16.6193 9.70626 16.0363 7.72089 14.8703 6.23974C13.7358 4.75859 11.9868 4.01801 9.62325 4.01801C8.17361 4.01801 6.72398 4.34891 5.27434 5.0107Z" fill="#112F59"/>
<path d="M45.4208 10.4941C45.4208 11.408 45.3578 12.4637 45.2318 13.6612H29.1125C29.5852 18.5774 32.2481 21.0355 37.1012 21.0355C39.4017 21.0355 41.7022 20.547 44.0027 19.5701L44.8063 23.4463C42.4428 24.5493 39.7326 25.1008 36.6758 25.1008C32.8626 25.1008 29.8215 23.9978 27.5525 21.7918C25.315 19.5543 24.1963 16.466 24.1963 12.5267C24.1963 8.80811 25.2205 5.79854 27.2689 3.49803C29.3173 1.16601 32.059 0 35.494 0C38.5508 0 40.9616 0.976929 42.7264 2.93079C44.5227 4.88464 45.4208 7.40575 45.4208 10.4941ZM40.7411 10.5886C40.7726 10.3996 40.7883 10.1474 40.7883 9.83231C40.7883 8.13057 40.3314 6.7282 39.4175 5.62522C38.5351 4.49072 37.2273 3.92347 35.494 3.92347C33.6662 3.92347 32.2008 4.52223 31.0978 5.71976C30.0264 6.88577 29.3803 8.50873 29.1597 10.5886H40.7411Z" fill="#112F59"/>
<path d="M48.4909 24.5335V2.22172C51.6422 0.740575 55.0773 0 58.7959 0C62.0733 0 64.5787 0.803603 66.3119 2.41081C68.0452 3.9865 68.9118 6.22398 68.9118 9.12325V24.5335H64.1375V9.45415C64.1375 5.83006 62.3569 4.01801 58.7959 4.01801C56.7475 4.01801 54.9039 4.42769 53.2652 5.24705V24.5335H48.4909Z" fill="#112F59"/>
<path d="M86.7805 5.19978C84.1649 4.41194 82.0534 4.01801 80.4462 4.01801C77.61 4.01801 76.1919 4.99494 76.1919 6.9488C76.1919 7.92573 76.5385 8.65054 77.2318 9.12325C77.9566 9.59596 79.1542 10.0844 80.8244 10.5886C83.6291 11.3765 85.6618 12.3061 86.9223 13.3776C88.1829 14.4491 88.8132 15.9775 88.8132 17.9629C88.8132 20.2949 87.9623 22.0754 86.2605 23.3045C84.5588 24.502 82.3055 25.1008 79.5008 25.1008C76.381 25.1008 73.655 24.6123 71.323 23.6354L72.0321 19.6173C74.5532 20.5943 77.027 21.0827 79.4536 21.0827C80.8717 21.0827 81.9904 20.8149 82.8098 20.2791C83.6607 19.7434 84.0861 19.0028 84.0861 18.0574C84.0861 17.0805 83.6764 16.3557 82.857 15.883C82.0692 15.3787 80.5723 14.8115 78.3663 14.1812C76.1289 13.5194 74.4113 12.6528 73.2138 11.5813C72.0478 10.5099 71.4648 8.9972 71.4648 7.04334C71.4648 4.77434 72.2211 3.04108 73.7338 1.84356C75.2465 0.61452 77.3736 0 80.1153 0C82.9201 0 85.3309 0.425437 87.3478 1.27631L86.7805 5.19978Z" fill="#112F59"/>
<path d="M99.5695 25.1008C96.5757 25.1008 94.2751 24.439 92.6679 23.1154C91.0607 21.7918 90.2571 20.0585 90.2571 17.9156C90.2571 15.5521 91.108 13.74 92.8098 12.4795C94.5115 11.2189 96.7647 10.5886 99.5695 10.5886C101.366 10.5886 103.036 10.762 104.58 11.1086V9.12325C104.58 5.71976 102.737 4.01801 99.0495 4.01801C96.749 4.01801 94.6376 4.41194 92.7152 5.19978L91.7698 1.37085C93.9758 0.456952 96.5599 0 99.5222 0C102.737 0 105.163 0.803603 106.802 2.41081C108.441 4.01801 109.26 6.33428 109.26 9.3596V22.9263C106.707 24.3759 103.477 25.1008 99.5695 25.1008ZM104.58 20.5155V14.323C103.067 13.9449 101.586 13.7558 100.137 13.7558C96.7332 13.7558 95.0315 15.0794 95.0315 17.7265C95.0315 20.2476 96.686 21.5082 99.9949 21.5082C101.917 21.5082 103.446 21.1773 104.58 20.5155Z" fill="#112F59"/>
<path d="M65.6227 32.2711L65.0061 34.7681C63.7319 34.2338 62.4988 33.9666 61.3068 33.9666C59.8271 33.9666 58.6762 34.4701 57.8541 35.4771C57.0526 36.4636 56.6519 37.82 56.6519 39.5463C56.6519 41.3549 57.0732 42.7318 57.9158 43.6772C58.7584 44.6226 59.9915 45.0953 61.6151 45.0953C62.7865 45.0953 63.9682 44.8076 65.1602 44.2321L65.7151 46.76C64.482 47.3971 63.0434 47.7156 61.3993 47.7156C58.892 47.7156 56.9396 47.0066 55.5421 45.5885C54.1651 44.1499 53.4766 42.1564 53.4766 39.608C53.4766 37.1007 54.1446 35.0969 55.4804 33.5966C56.8368 32.0964 58.707 31.3462 61.091 31.3462C62.7762 31.3462 64.2868 31.6545 65.6227 32.2711Z" fill="#0855A3"/>
<path d="M74.2071 47.7156C72.2547 47.7156 70.7544 47.284 69.7063 46.4209C68.6582 45.5577 68.1341 44.4274 68.1341 43.0298C68.1341 41.4885 68.689 40.3068 69.7988 39.4847C70.9086 38.6626 72.378 38.2516 74.2071 38.2516C75.3786 38.2516 76.4678 38.3646 77.4748 38.5907V37.2959C77.4748 35.0764 76.2726 33.9666 73.868 33.9666C72.3678 33.9666 70.9908 34.2235 69.7371 34.7373L69.1206 32.2402C70.5592 31.6442 72.2444 31.3462 74.1763 31.3462C76.2726 31.3462 77.855 31.8703 78.9237 32.9184C79.9924 33.9666 80.5267 35.4771 80.5267 37.4501V46.2976C78.8621 47.2429 76.7555 47.7156 74.2071 47.7156ZM77.4748 44.7254V40.687C76.4883 40.4403 75.5224 40.317 74.577 40.317C72.3575 40.317 71.2477 41.1802 71.2477 42.9065C71.2477 44.5507 72.3267 45.3727 74.4846 45.3727C75.7382 45.3727 76.735 45.1569 77.4748 44.7254Z" fill="#0855A3"/>
<path d="M91.7349 31.3462C92.5364 31.3462 93.266 31.4182 93.9237 31.562L93.4921 34.1824C93.0605 34.0385 92.5467 33.9666 91.9507 33.9666C90.5738 33.9666 89.3818 34.2338 88.3747 34.7681V47.3457H85.2612V32.826C87.0286 31.8395 89.1865 31.3462 91.7349 31.3462Z" fill="#0855A3"/>
<path d="M109.405 38.1899C109.405 38.7859 109.364 39.4744 109.282 40.2554H98.7694C99.0776 43.4614 100.814 45.0645 103.979 45.0645C105.479 45.0645 106.98 44.7459 108.48 44.1088L109.004 46.6367C107.463 47.356 105.695 47.7156 103.702 47.7156C101.215 47.7156 99.2318 46.9963 97.7521 45.5577C96.2929 44.0985 95.5633 42.0845 95.5633 39.5155C95.5633 37.0904 96.2312 35.1277 97.5671 33.6275C98.9029 32.1067 100.691 31.3462 102.931 31.3462C104.925 31.3462 106.497 31.9833 107.648 33.2575C108.819 34.5317 109.405 36.1759 109.405 38.1899ZM106.353 38.2516C106.373 38.1283 106.384 37.9639 106.384 37.7584C106.384 36.6486 106.086 35.734 105.49 35.0147C104.914 34.2749 104.061 33.9049 102.931 33.9049C101.739 33.9049 100.783 34.2954 100.064 35.0764C99.3654 35.8368 98.944 36.8952 98.8002 38.2516H106.353Z" fill="#0855A3"/>
</svg>
