<svg width="10" height="16" viewBox="0 0 10 16" fill="none" xmlns="http://www.w3.org/2000/svg">
<path d="M1.51873 15.75C1.12014 15.75 0.78594 15.6224 0.516127 15.3672C0.252446 15.1179 0.120605 14.8063 0.120605 14.4324V1.56763C0.120605 1.19371 0.252446 0.882108 0.516127 0.632826C0.78594 0.377609 1.12014 0.25 1.51873 0.25C1.92345 0.25 2.25765 0.377609 2.52133 0.632826C2.79114 0.882108 2.92605 1.19371 2.92605 1.56763V14.4324C2.92605 14.8063 2.79114 15.1179 2.52133 15.3672C2.25765 15.6224 1.92345 15.75 1.51873 15.75ZM8.47254 15.75C8.07396 15.75 7.73976 15.6224 7.46994 15.3672C7.20626 15.1179 7.07442 14.8063 7.07442 14.4324V1.56763C7.07442 1.19371 7.20626 0.882108 7.46994 0.632826C7.73976 0.377609 8.07396 0.25 8.47254 0.25C8.87726 0.25 9.21146 0.377609 9.47515 0.632826C9.74496 0.882108 9.87986 1.19371 9.87986 1.56763V14.4324C9.87986 14.8063 9.74496 15.1179 9.47515 15.3672C9.21146 15.6224 8.87726 15.75 8.47254 15.75Z" fill="black"/>
</svg>
