<svg width="16" height="17" viewBox="0 0 16 17" fill="none" xmlns="http://www.w3.org/2000/svg">
<path d="M2.82373 16.4277C1.93311 16.4277 1.24821 16.1908 0.769043 15.7168C0.295085 15.248 0.0581055 14.571 0.0581055 13.6855V4.79492C0.0581055 3.90951 0.295085 3.23242 0.769043 2.76367C1.24821 2.28971 1.93311 2.05273 2.82373 2.05273H11.2612L9.24561 4.06836H3.04248C2.72998 4.06836 2.4904 4.14909 2.32373 4.31055C2.15706 4.4668 2.07373 4.71159 2.07373 5.04492V13.4355C2.07373 13.7689 2.15706 14.0163 2.32373 14.1777C2.4904 14.334 2.72998 14.4121 3.04248 14.4121H11.5815C11.8315 14.4121 12.0321 14.334 12.1831 14.1777C12.3394 14.0163 12.4175 13.7689 12.4175 13.4355V7.29492L14.4331 5.2793V13.6855C14.4331 14.571 14.2013 15.248 13.7378 15.7168C13.2795 16.1908 12.6336 16.4277 11.8003 16.4277H2.82373ZM5.96436 10.9355C5.84456 10.9772 5.73258 10.9512 5.62842 10.8574C5.52946 10.7637 5.50602 10.6517 5.55811 10.5215L6.26904 8.8418L13.105 2.00586L14.5112 3.4043L7.66748 10.248L5.96436 10.9355ZM15.144 2.7793L13.73 1.37305L14.2378 0.873047C14.4149 0.695964 14.6206 0.597005 14.855 0.576172C15.0894 0.555339 15.2821 0.617839 15.4331 0.763672L15.6831 1.01367C15.8654 1.18555 15.9513 1.38867 15.9409 1.62305C15.9357 1.85742 15.842 2.06836 15.6597 2.25586L15.144 2.7793Z" fill="#9C9C9C"/>
</svg>
